<svg width="498" height="114" viewBox="0 0 498 114" fill="none" xmlns="http://www.w3.org/2000/svg">
<path d="M497.435 47.8015V83.0001H485.765V48.3707C485.765 45.9672 485.323 43.7851 484.437 41.8244C483.552 39.8004 482.381 38.0926 480.927 36.7011C479.472 35.3096 477.796 34.2344 475.898 33.4754C474.001 32.7164 472.008 32.3369 469.921 32.3369C467.897 32.3369 465.936 32.748 464.039 33.5703C462.142 34.3293 460.465 35.4361 459.011 36.8909C457.556 38.2824 456.386 39.9585 455.5 41.9193C454.678 43.88 454.267 46.0305 454.267 48.3707V48.181V83.0001H442.502V48.3707C442.502 45.9672 442.06 43.7851 441.174 41.8244C440.352 39.8004 439.213 38.0926 437.759 36.7011C436.304 35.3096 434.628 34.2344 432.73 33.4754C430.833 32.7164 428.84 32.3369 426.753 32.3369C424.666 32.3369 422.674 32.748 420.776 33.5703C418.942 34.3293 417.297 35.4045 415.843 36.796C414.451 38.1875 413.313 39.8953 412.427 41.9193C411.605 43.88 411.194 46.0305 411.194 48.3707V83.0001H399.429V22.7545H411.194V27.8778C411.953 27.182 412.901 26.4546 414.04 25.6956C415.178 24.9366 416.412 24.2409 417.74 23.6084C419.132 22.9759 420.586 22.4699 422.104 22.0904C423.622 21.6476 425.172 21.4263 426.753 21.4263C431.307 21.4263 435.387 22.4066 438.992 24.3674C442.661 26.2649 445.823 28.8581 448.48 32.1471C449.492 30.8189 450.693 29.5223 452.085 28.2573C453.476 26.9923 455.058 25.8538 456.829 24.8418C458.663 23.8298 460.655 23.0075 462.806 22.375C465.019 21.7425 467.423 21.4263 470.016 21.4263C473.811 21.4263 477.353 22.0904 480.642 23.4186C483.994 24.6836 486.904 26.4863 489.371 28.8265C491.837 31.1035 493.798 33.8865 495.253 37.1755C496.708 40.4013 497.435 43.9432 497.435 47.8015Z" fill="#1D4B91"/>
<path d="M387.124 52.9247C387.124 57.289 386.302 61.4002 384.658 65.2585C383.013 69.0535 380.768 72.3741 377.921 75.2203C375.075 78.0666 371.755 80.312 367.96 81.9565C364.165 83.601 360.085 84.4232 355.721 84.4232C351.357 84.4232 347.245 83.601 343.387 81.9565C339.592 80.312 336.271 78.0666 333.425 75.2203C330.579 72.3741 328.334 69.0535 326.689 65.2585C325.045 61.4002 324.222 57.289 324.222 52.9247C324.222 48.5605 325.045 44.4809 326.689 40.6859C328.334 36.8276 330.579 33.4754 333.425 30.6291C336.271 27.7829 339.592 25.5375 343.387 23.893C347.245 22.2485 351.357 21.4263 355.721 21.4263C360.085 21.4263 364.165 22.2485 367.96 23.893C371.755 25.5375 375.075 27.7829 377.921 30.6291C380.768 33.4754 383.013 36.8276 384.658 40.6859C386.302 44.4809 387.124 48.5605 387.124 52.9247ZM375.455 52.9247C375.455 50.205 374.917 47.6117 373.842 45.145C372.767 42.615 371.312 40.4013 369.478 38.5038C367.707 36.6063 365.619 35.1199 363.216 34.0446C360.876 32.9061 358.377 32.3369 355.721 32.3369C353.064 32.3369 350.534 32.9061 348.131 34.0446C345.727 35.1199 343.608 36.6063 341.774 38.5038C340.003 40.4013 338.58 42.615 337.505 45.145C336.493 47.6117 335.987 50.205 335.987 52.9247C335.987 55.7077 336.493 58.3326 337.505 60.7994C338.58 63.2661 340.003 65.4482 341.774 67.3457C343.608 69.2432 345.696 70.7612 348.036 71.8997C350.439 72.975 353.001 73.5126 355.721 73.5126C358.377 73.5126 360.907 72.975 363.311 71.8997C365.714 70.7612 367.801 69.2432 369.572 67.3457C371.407 65.4482 372.83 63.2661 373.842 60.7994C374.917 58.3326 375.455 55.7077 375.455 52.9247Z" fill="#1D4B91"/>
<path d="M316.591 75.0306C313.175 78.2563 309.602 80.6282 305.87 82.1462C302.201 83.6642 298.185 84.4232 293.821 84.4232C289.52 84.4232 285.472 83.601 281.677 81.9565C277.945 80.312 274.656 78.0666 271.81 75.2203C269.027 72.3741 266.813 69.0535 265.169 65.2585C263.524 61.4002 262.702 57.289 262.702 52.9247C262.702 48.5605 263.524 44.4809 265.169 40.6859C266.813 36.8276 269.059 33.4754 271.905 30.6291C274.751 27.7829 278.04 25.5375 281.772 23.893C285.567 22.2485 289.583 21.4263 293.821 21.4263C298.185 21.4263 302.233 22.1536 305.965 23.6084C309.697 25.0631 313.175 27.4034 316.401 30.6291L308.242 38.8833C306.218 36.6695 303.972 35.025 301.506 33.9498C299.039 32.8745 296.477 32.3369 293.821 32.3369C291.164 32.3369 288.666 32.9061 286.326 34.0446C283.986 35.1199 281.93 36.6063 280.159 38.5038C278.388 40.4013 276.965 42.615 275.89 45.145C274.878 47.6117 274.372 50.205 274.372 52.9247C274.372 55.7077 274.878 58.3326 275.89 60.7994C276.965 63.2661 278.356 65.4482 280.064 67.3457C281.835 69.2432 283.891 70.7612 286.231 71.8997C288.634 72.975 291.164 73.5126 293.821 73.5126C296.541 73.5126 299.134 72.9433 301.601 71.8048C304.131 70.6663 306.408 68.9902 308.432 66.7765L316.591 75.0306Z" fill="#1D4B91"/>
<path d="M258.873 29.4906L250.808 37.6499C249.417 36.0054 247.614 34.7088 245.401 33.76C243.25 32.8113 241.068 32.3369 238.854 32.3369C237.02 32.3369 235.154 32.748 233.257 33.5703C231.422 34.3293 229.746 35.4678 228.228 36.9858C226.773 38.4405 225.572 40.2115 224.623 42.2987C223.674 44.386 223.2 46.7262 223.2 49.3195L223.105 83.0001H211.625V22.7545H223.105V27.8778C225.129 25.8538 227.532 24.2725 230.315 23.134C233.162 21.9955 236.04 21.4263 238.949 21.4263C242.744 21.4263 246.349 22.122 249.765 23.5135C253.18 24.8418 256.216 26.8341 258.873 29.4906Z" fill="#1D4B91"/>
<path d="M195.943 8.33349C195.943 10.3575 195.216 12.0969 193.761 13.5516C192.306 15.0064 190.567 15.7337 188.543 15.7337C186.519 15.7337 184.78 15.0064 183.325 13.5516C181.87 12.0969 181.143 10.3575 181.143 8.33349C181.143 6.24625 181.87 4.47525 183.325 3.0205C184.78 1.56575 186.519 0.838379 188.543 0.838379C190.567 0.838379 192.306 1.56575 193.761 3.0205C195.216 4.47525 195.943 6.24625 195.943 8.33349ZM195.279 83H183.515V33.8549H177.822V22.9442H195.279V83Z" fill="#1D4B91"/>
<path d="M165.966 83.095H154.201V77.4025C151.545 79.6162 148.54 81.3556 145.188 82.6206C141.899 83.8223 138.357 84.4232 134.562 84.4232C130.198 84.4232 126.087 83.601 122.228 81.9565C118.433 80.312 115.113 78.0666 112.267 75.2203C109.42 72.3741 107.175 69.0535 105.53 65.2585C103.886 61.4002 103.064 57.289 103.064 52.9247C103.064 48.5605 103.886 44.4809 105.53 40.6859C107.175 36.8276 109.42 33.4754 112.267 30.6291C115.113 27.7829 118.433 25.5375 122.228 23.893C126.087 22.2485 130.198 21.4263 134.562 21.4263C138.357 21.4263 141.899 22.0271 145.188 23.2289C148.54 24.4306 151.545 26.1384 154.201 28.3521V22.7545H165.966V83.095ZM154.296 52.9247C154.296 50.205 153.759 47.6117 152.683 45.145C151.608 42.615 150.153 40.4013 148.319 38.5038C146.548 36.6063 144.461 35.1199 142.057 34.0446C139.717 32.9061 137.219 32.3369 134.562 32.3369C131.906 32.3369 129.376 32.9061 126.972 34.0446C124.569 35.1199 122.45 36.6063 120.616 38.5038C118.845 40.4013 117.421 42.615 116.346 45.145C115.334 47.6117 114.828 50.205 114.828 52.9247C114.828 55.7077 115.334 58.3326 116.346 60.7994C117.421 63.2661 118.845 65.4482 120.616 67.3457C122.45 69.2432 124.537 70.7612 126.877 71.8997C129.281 72.975 131.842 73.5126 134.562 73.5126C137.219 73.5126 139.749 72.975 142.152 71.8997C144.556 70.7612 146.643 69.2432 148.414 67.3457C150.248 65.4482 151.671 63.2661 152.683 60.7994C153.759 58.3326 154.296 55.7077 154.296 52.9247Z" fill="#1D4B91"/>
<path d="M83.5 53.1479C83.5 76.2479 64.8 94.9479 41.7 94.9479C18.6 94.9479 0 76.1479 0 53.1479C0 30.1479 18.7 11.3479 41.8 11.3479C64.9 11.2479 83.5 30.0479 83.5 53.1479Z" fill="#1E4A91"/>
<path d="M65.7999 25.7479C65.6999 25.7479 65.6999 25.6479 65.7999 25.7479H65.6C59.1 25.7479 17.8 25.7479 17.8 25.7479H17C14.2 26.0479 10.8 29.0479 8.29995 33.4479C7.39995 35.0479 6.69995 36.7479 6.19995 38.3479C5.99995 39.0479 5.89995 39.7479 5.69995 40.4479C6.79995 37.6479 9.69995 35.6479 12.9 35.6479C12.9 35.6479 62.1 35.6479 69.2 35.6479C69.8 34.6479 70.1 33.4479 70.1 32.2479C70.2 29.3479 68.4999 26.7479 65.7999 25.7479Z" fill="white"/>
<path d="M6.30004 45.048C6.40004 45.148 6.40004 45.048 6.30004 45.048L6.40004 45.248C9.70004 50.848 30.3 86.648 30.3 86.648L30.8 87.348C32.4 89.548 36.9 91.048 41.8 91.048C43.8 91.048 45.6 90.848 47.2 90.348C47.9 90.148 48.6 90.048 49.3 89.648C46.3 89.948 43.2 88.648 41.5 85.748C41.5 85.748 16.9 43.248 13.4 37.048C12.3 37.048 11 37.348 10 37.948C7.30004 39.448 6.00004 42.148 6.30004 45.048Z" fill="white"/>
<path d="M52.99 86.9479C56.39 81.2479 76.99 45.4479 76.99 45.4479L77.49 44.7479C78.59 42.2479 77.69 37.6479 75.19 33.3479C74.29 31.7479 73.09 30.2479 71.99 28.9479C71.39 28.3479 70.99 27.9479 70.39 27.4479C72.19 29.8479 72.59 33.3479 70.99 36.0479C70.99 36.0479 46.39 78.5479 42.89 84.7479C43.49 85.7479 44.39 86.5479 45.39 87.2479C47.59 88.9479 50.69 88.7479 52.99 86.9479Z" fill="white"/>
<path d="M463 95L454.802 114H451.912L454.513 108.051L449 95H451.953L455.959 104.7L460.13 95H463Z" fill="#001D4F"/>
<path d="M441 101.062V109H438.262V101.126C438.262 100.565 438.158 100.062 437.95 99.6163C437.757 99.1561 437.49 98.775 437.149 98.473C436.808 98.1566 436.407 97.9121 435.947 97.7395C435.487 97.567 435.005 97.4807 434.5 97.4807C434.01 97.4807 433.535 97.5742 433.075 97.7611C432.63 97.9337 432.237 98.1854 431.896 98.5161C431.554 98.8325 431.28 99.2136 431.072 99.6594C430.864 100.105 430.76 100.594 430.76 101.126L430.738 109H428V95.3019H430.76V96.4452C431.235 95.985 431.807 95.6327 432.474 95.3882C433.157 95.1294 433.854 94.9999 434.567 94.9999C435.472 94.9999 436.318 95.1438 437.104 95.4314C437.891 95.719 438.574 96.1289 439.152 96.661C439.731 97.1931 440.184 97.833 440.51 98.5808C440.837 99.3287 441 100.156 441 101.062Z" fill="#001D4F"/>
<path d="M419 108.705H416.382V107.44C415.79 107.932 415.122 108.318 414.376 108.599C413.644 108.866 412.855 109 412.011 109C411.039 109 410.124 108.817 409.265 108.452C408.421 108.086 407.682 107.587 407.048 106.955C406.415 106.322 405.915 105.584 405.549 104.741C405.183 103.884 405 102.97 405 102C405 101.03 405.183 100.123 405.549 99.2801C405.915 98.4227 406.415 97.6777 407.048 97.0452C407.682 96.4127 408.421 95.9137 409.265 95.5482C410.124 95.1827 411.039 95 412.011 95C412.855 95 413.644 95.1335 414.376 95.4006C415.122 95.6677 415.79 96.0472 416.382 96.5392V95.2952H419V108.705ZM416.403 102C416.403 101.396 416.283 100.819 416.044 100.271C415.804 99.7088 415.481 99.2169 415.072 98.7952C414.678 98.3735 414.214 98.0432 413.679 97.8042C413.158 97.5512 412.602 97.4247 412.011 97.4247C411.419 97.4247 410.856 97.5512 410.321 97.8042C409.786 98.0432 409.315 98.3735 408.906 98.7952C408.512 99.2169 408.196 99.7088 407.956 100.271C407.731 100.819 407.618 101.396 407.618 102C407.618 102.618 407.731 103.202 407.956 103.75C408.196 104.298 408.512 104.783 408.906 105.205C409.315 105.627 409.779 105.964 410.3 106.217C410.835 106.456 411.405 106.575 412.011 106.575C412.602 106.575 413.165 106.456 413.7 106.217C414.235 105.964 414.699 105.627 415.094 105.205C415.502 104.783 415.818 104.298 416.044 103.75C416.283 103.202 416.403 102.618 416.403 102Z" fill="#001D4F"/>
<path d="M396 102.251C396 103.27 395.817 104.223 395.451 105.111C395.085 105.985 394.585 106.749 393.952 107.405C393.318 108.06 392.579 108.577 391.735 108.955C390.89 109.319 389.982 109.501 389.011 109.501C388.166 109.501 387.371 109.363 386.624 109.086C385.878 108.795 385.21 108.395 384.618 107.885V114H382V95.3057H384.618V96.6379C385.21 96.1284 385.878 95.728 386.624 95.4368C387.371 95.1456 388.166 95 389.011 95C389.982 95 390.89 95.1893 391.735 95.5678C392.579 95.9464 393.318 96.4632 393.952 97.1184C394.585 97.7736 395.085 98.5452 395.451 99.4333C395.817 100.307 396 101.246 396 102.251ZM393.382 102.251C393.382 101.61 393.262 101.006 393.023 100.438C392.797 99.8556 392.488 99.3533 392.094 98.931C391.699 98.4943 391.235 98.1521 390.7 97.9046C390.165 97.6425 389.602 97.5115 389.011 97.5115C388.405 97.5115 387.835 97.6425 387.3 97.9046C386.779 98.1521 386.315 98.4943 385.906 98.931C385.512 99.3533 385.196 99.8556 384.956 100.438C384.731 101.006 384.618 101.61 384.618 102.251C384.618 102.891 384.731 103.503 384.956 104.085C385.196 104.653 385.512 105.155 385.906 105.592C386.315 106.014 386.786 106.356 387.321 106.618C387.856 106.866 388.419 106.99 389.011 106.99C389.602 106.99 390.158 106.866 390.679 106.618C391.214 106.356 391.678 106.014 392.072 105.592C392.481 105.155 392.797 104.653 393.023 104.085C393.262 103.503 393.382 102.891 393.382 102.251Z" fill="#001D4F"/>
<path d="M372 100.425V109H369.38V100.564C369.38 99.9784 369.281 99.4468 369.082 98.9692C368.884 98.4761 368.621 98.0601 368.294 97.7211C367.968 97.3821 367.591 97.1202 367.166 96.9353C366.74 96.7504 366.292 96.6579 365.824 96.6579C365.369 96.6579 364.929 96.7581 364.503 96.9584C364.077 97.1433 363.701 97.4129 363.375 97.7673C363.048 98.1063 362.785 98.5146 362.587 98.9923C362.402 99.47 362.31 99.9938 362.31 100.564V100.518V109H359.669V100.564C359.669 99.9784 359.57 99.4468 359.371 98.9692C359.186 98.4761 358.931 98.0601 358.604 97.7211C358.278 97.3821 357.901 97.1202 357.475 96.9353C357.049 96.7504 356.602 96.6579 356.134 96.6579C355.665 96.6579 355.218 96.7581 354.792 96.9584C354.38 97.1433 354.011 97.4052 353.684 97.7442C353.372 98.0832 353.116 98.4992 352.918 98.9923C352.733 99.47 352.641 99.9938 352.641 100.564V109H350V94.3236H352.641V95.5716C352.811 95.4022 353.024 95.225 353.28 95.0401C353.535 94.8552 353.812 94.6857 354.11 94.5316C354.423 94.3775 354.749 94.2542 355.09 94.1618C355.431 94.0539 355.779 94 356.134 94C357.156 94 358.072 94.2388 358.881 94.7165C359.704 95.1787 360.414 95.8105 361.011 96.6117C361.238 96.2881 361.508 95.9723 361.82 95.6641C362.132 95.3559 362.487 95.0786 362.885 94.832C363.297 94.5855 363.744 94.3852 364.227 94.2311C364.723 94.077 365.263 94 365.845 94C366.697 94 367.492 94.1618 368.23 94.4854C368.983 94.7935 369.636 95.2327 370.19 95.8028C370.743 96.3575 371.184 97.0354 371.51 97.8367C371.837 98.6225 372 99.4854 372 100.425Z" fill="#001D4F"/>
<path d="M341 102C341 102.97 340.817 103.884 340.451 104.741C340.085 105.584 339.585 106.322 338.952 106.955C338.318 107.587 337.579 108.086 336.735 108.452C335.89 108.817 334.982 109 334.011 109C333.039 109 332.124 108.817 331.265 108.452C330.421 108.086 329.682 107.587 329.048 106.955C328.415 106.322 327.915 105.584 327.549 104.741C327.183 103.884 327 102.97 327 102C327 101.03 327.183 100.123 327.549 99.2801C327.915 98.4227 328.415 97.6777 329.048 97.0452C329.682 96.4127 330.421 95.9137 331.265 95.5482C332.124 95.1827 333.039 95 334.011 95C334.982 95 335.89 95.1827 336.735 95.5482C337.579 95.9137 338.318 96.4127 338.952 97.0452C339.585 97.6777 340.085 98.4227 340.451 99.2801C340.817 100.123 341 101.03 341 102ZM338.403 102C338.403 101.396 338.283 100.819 338.044 100.271C337.804 99.7088 337.481 99.2169 337.072 98.7952C336.678 98.3735 336.214 98.0432 335.679 97.8042C335.158 97.5512 334.602 97.4247 334.011 97.4247C333.419 97.4247 332.856 97.5512 332.321 97.8042C331.786 98.0432 331.315 98.3735 330.906 98.7952C330.512 99.2169 330.196 99.7088 329.956 100.271C329.731 100.819 329.618 101.396 329.618 102C329.618 102.618 329.731 103.202 329.956 103.75C330.196 104.298 330.512 104.783 330.906 105.205C331.315 105.627 331.779 105.964 332.3 106.217C332.835 106.456 333.405 106.575 334.011 106.575C334.602 106.575 335.165 106.456 335.7 106.217C336.235 105.964 336.699 105.627 337.094 105.205C337.502 104.783 337.819 104.298 338.044 103.75C338.283 103.202 338.403 102.618 338.403 102Z" fill="#001D4F"/>
<path d="M318 106.207C316.277 108.069 314.179 109 311.708 109C310.507 109 309.377 108.748 308.318 108.245C307.258 107.741 306.333 107.062 305.542 106.207C304.766 105.353 304.144 104.353 303.678 103.208C303.226 102.049 303 100.812 303 99.5C303 98.1876 303.226 96.959 303.678 95.8145C304.144 94.6546 304.766 93.6474 305.542 92.7928C306.333 91.9229 307.258 91.2438 308.318 90.7554C309.377 90.2518 310.507 90 311.708 90C314.137 90 316.234 90.9233 318 92.7699L316.136 94.8301C315.486 94.0976 314.794 93.5787 314.059 93.2735C313.339 92.9683 312.555 92.8157 311.708 92.8157C310.874 92.8157 310.09 92.9988 309.356 93.3651C308.636 93.7161 308.007 94.1968 307.47 94.8072C306.934 95.4177 306.51 96.1273 306.199 96.9361C305.888 97.745 305.733 98.5996 305.733 99.5C305.733 100.4 305.888 101.255 306.199 102.064C306.51 102.873 306.934 103.582 307.47 104.193C308.007 104.803 308.636 105.292 309.356 105.658C310.09 106.009 310.874 106.184 311.708 106.184C313.431 106.184 314.907 105.513 316.136 104.17L318 106.207Z" fill="#001D4F"/>
<path d="M282 99.5C282 100.812 281.761 102.049 281.283 103.208C280.82 104.353 280.176 105.353 279.351 106.207C278.54 107.062 277.585 107.741 276.485 108.245C275.399 108.748 274.241 109 273.011 109C271.766 109 270.593 108.748 269.493 108.245C268.408 107.741 267.452 107.062 266.627 106.207C265.817 105.353 265.172 104.353 264.695 103.208C264.232 102.049 264 100.812 264 99.5C264 98.1876 264.232 96.959 264.695 95.8145C265.172 94.6546 265.817 93.6474 266.627 92.7928C267.452 91.9229 268.408 91.2438 269.493 90.7554C270.593 90.2518 271.766 90 273.011 90C274.241 90 275.399 90.2518 276.485 90.7554C277.585 91.2438 278.54 91.9229 279.351 92.7928C280.176 93.6474 280.82 94.6546 281.283 95.8145C281.761 96.959 282 98.1876 282 99.5ZM279.199 99.5C279.199 98.5843 279.033 97.7221 278.7 96.9133C278.381 96.1044 277.94 95.4024 277.375 94.8072C276.811 94.1968 276.152 93.7161 275.399 93.3651C274.647 92.9988 273.85 92.8157 273.011 92.8157C272.157 92.8157 271.353 92.9988 270.601 93.3651C269.848 93.7161 269.189 94.1968 268.625 94.8072C268.06 95.4024 267.612 96.1044 267.279 96.9133C266.96 97.7221 266.801 98.5843 266.801 99.5C266.801 100.4 266.96 101.255 267.279 102.064C267.612 102.873 268.06 103.582 268.625 104.193C269.189 104.803 269.848 105.292 270.601 105.658C271.353 106.009 272.157 106.184 273.011 106.184C273.865 106.184 274.668 106.009 275.421 105.658C276.174 105.292 276.825 104.803 277.375 104.193C277.94 103.582 278.381 102.873 278.7 102.064C279.033 101.255 279.199 100.4 279.199 99.5Z" fill="#001D4F"/>
<path d="M256 106.207C254.277 108.069 252.179 109 249.708 109C248.507 109 247.377 108.748 246.318 108.245C245.258 107.741 244.333 107.062 243.542 106.207C242.766 105.353 242.144 104.353 241.678 103.208C241.226 102.049 241 100.812 241 99.5C241 98.1876 241.226 96.959 241.678 95.8145C242.144 94.6546 242.766 93.6474 243.542 92.7928C244.333 91.9229 245.258 91.2438 246.318 90.7554C247.377 90.2518 248.507 90 249.708 90C252.137 90 254.234 90.9233 256 92.7699L254.136 94.8301C253.486 94.0976 252.794 93.5787 252.059 93.2735C251.339 92.9683 250.555 92.8157 249.708 92.8157C248.874 92.8157 248.09 92.9988 247.356 93.3651C246.636 93.7161 246.007 94.1968 245.47 94.8072C244.934 95.4177 244.51 96.1273 244.199 96.9361C243.888 97.745 243.733 98.5996 243.733 99.5C243.733 100.4 243.888 101.255 244.199 102.064C244.51 102.873 244.934 103.582 245.47 104.193C246.007 104.803 246.636 105.292 247.356 105.658C248.09 106.009 248.874 106.184 249.708 106.184C251.431 106.184 252.907 105.513 254.136 104.17L256 106.207Z" fill="#001D4F"/>
<path d="M233 99.5C233 100.812 232.761 102.049 232.283 103.208C231.82 104.353 231.176 105.353 230.351 106.207C229.54 107.062 228.585 107.741 227.485 108.245C226.399 108.748 225.241 109 224.011 109C222.766 109 221.593 108.748 220.493 108.245C219.408 107.741 218.452 107.062 217.627 106.207C216.817 105.353 216.172 104.353 215.695 103.208C215.232 102.049 215 100.812 215 99.5C215 98.1876 215.232 96.959 215.695 95.8145C216.172 94.6546 216.817 93.6474 217.627 92.7928C218.452 91.9229 219.408 91.2438 220.493 90.7554C221.593 90.2518 222.766 90 224.011 90C225.241 90 226.399 90.2518 227.485 90.7554C228.585 91.2438 229.54 91.9229 230.351 92.7928C231.176 93.6474 231.82 94.6546 232.283 95.8145C232.761 96.959 233 98.1876 233 99.5ZM230.199 99.5C230.199 98.5843 230.033 97.7221 229.7 96.9133C229.381 96.1044 228.94 95.4024 228.375 94.8072C227.811 94.1968 227.152 93.7161 226.399 93.3651C225.647 92.9988 224.85 92.8157 224.011 92.8157C223.157 92.8157 222.353 92.9988 221.601 93.3651C220.848 93.7161 220.189 94.1968 219.625 94.8072C219.06 95.4024 218.612 96.1044 218.279 96.9133C217.96 97.7221 217.801 98.5843 217.801 99.5C217.801 100.4 217.96 101.255 218.279 102.064C218.612 102.873 219.06 103.582 219.625 104.193C220.189 104.803 220.848 105.292 221.601 105.658C222.353 106.009 223.157 106.184 224.011 106.184C224.865 106.184 225.668 106.009 226.421 105.658C227.174 105.292 227.825 104.803 228.375 104.193C228.94 103.582 229.381 102.873 229.7 102.064C230.033 101.255 230.199 100.4 230.199 99.5Z" fill="#001D4F"/>
<path d="M207 109H194V90H207V92.8975H196.737V97.9562H205.91V100.854H196.737V106.103H207V109Z" fill="#001D4F"/>
<path d="M186 92.8975H180.333V109H177.667V92.8975H172V90H186V92.8975Z" fill="#001D4F"/>
<path d="M152 109H149.018L146.972 104.23H139.028L136.982 109H134L141.727 91H144.252L152 109ZM145.775 101.463L142.989 94.9825L140.225 101.463H145.775Z" fill="#001D4F"/>
</svg>
